<?xml version="1.0" encoding="UTF-8"?>
<svg id="_Слой_1" xmlns="http://www.w3.org/2000/svg" version="1.1" viewBox="0 0 566.9 566.9">
  <!-- Generator: Adobe Illustrator 29.0.1, SVG Export Plug-In . SVG Version: 2.1.0 Build 192)  -->
  <defs>
    <style>
      .st0 {
        fill: #f97316;
      }
    </style>
  </defs>
  <path class="st0" d="M271.7,0H44.2c-3.5,0-6.3,2.8-6.3,6.3v554.3c0,3.5,2.8,6.3,6.3,6.3h226.7c170.3,0,256.4-93.9,258.2-281.6v-2.7C529.1,94.2,443.3,0,271.7,0h0ZM379.3,188.8c0,3.5-2.8,6.3-6.3,6.3h-115c-21.5,0-36.9,6.8-47.2,20.9-10.5,14.3-15.8,37.3-15.8,68.3,0,58.9,20.4,87.5,62.5,87.5h115c3.5,0,6.3,2.8,6.3,6.3v46.2c0,3.5-2.8,6.3-6.3,6.3h-102.2c-88.9,0-134-49.4-134-146.7v-1.4c.9-97.1,46.2-146.3,134.5-146.3h102.2c3.5,0,6.3,2.8,6.3,6.3v46.2h0Z"/>
</svg>
